# xmcd
#
# Track frame offsets:
# 150
# 16950
# 39350
# 61480
# 83170
# 111382
# 128042
# 149310
# 172272
# 196397
# 218065
# 241872
# 265492
# 289815
# 309440
#
# Disc length: 4415 seconds
#
#
# Revision: 0
# Processed by: cddbd v1.4PL0 Copyright (c) Steve Scherf et al.
# Submitted via: FreeRIP 2.10 
#
DISCID=dd113d0f
DTITLE=Various Artist - Various Salsa Artists
DYEAR=1999
DGENRE=Salsa
TTITLE0=Lloraras (Dimension Latina)
TTITLE1=Una Emisora en el Cielo (Andy Montañez)
TTITLE2=Comuniquemonos (Oscar D'Leon)
TTITLE3=La Cita (Galy Galeano)
TTITLE4=Paso La Vida Pensando (Conjunto Chaney)
TTITLE5=O Me Quieres o Me Dejas (Noche Caliente)
TTITLE6=Cubreme (Marvin Santiago)
TTITLE7=Por que Te Amo (Nino Segarra)
TTITLE8=Estudiando (La Solucion)
TTITLE9=Quiero lo que Tienes (Grupo Clase)
TTITLE10=Bebe Salsero (Salserin)
TTITLE11=Señor Cantante (DUO)
TTITLE12=Muralla de Bronce (Ismael Rivera JR)
TTITLE13=Sacale El Cuerpo (La Banda)
TTITLE14=Tres Mujeres (Puerto Rican Power)
EXTD=
EXTT0=
EXTT1=
EXTT2=
EXTT3=
EXTT4=
EXTT5=
EXTT6=
EXTT7=
EXTT8=
EXTT9=
EXTT10=
EXTT11=
EXTT12=
EXTT13=
EXTT14=
PLAYORDER=
